<svg xmlns="http://www.w3.org/2000/svg" width="900" height="300" version="1.1">
 <g>
  <path fill="rgba(255,255,255,0.8)" transform="rotate(7.37857 498.822 210.058)" stroke="null" id="svg_1" stroke-linecap="round" d="m-314.00576,368.75039l45.15711,16.17871c45.15711,16.17871 135.47134,48.53612 225.78556,9.36662c90.31422,-39.1695 180.62845,-149.8659 270.94267,-192.10084c90.31422,-42.40524 180.62845,-16.17871 270.94267,-49.21732c90.31422,-32.86832 180.62845,-124.83148 270.94267,-171.66458c90.31422,-46.83309 180.62845,-48.53612 270.94267,17.03022c90.31422,65.56633 180.62845,198.40202 225.78556,264.81986l45.15711,66.41784l0,143.05381l-45.15711,0c-45.15711,0 -135.47134,0 -225.78556,0c-90.31422,0 -180.62845,0 -270.94267,0c-90.31422,0 -180.62845,0 -270.94267,0c-90.31422,0 -180.62845,0 -270.94267,0c-90.31422,0 -180.62845,0 -270.94267,0c-90.31422,0 -180.62845,0 -225.78556,0l-45.15711,0l0,-103.88432z"/>
 </g>
</svg>